<?xml version="1.0" encoding="UTF-8"?>
<svg id="Layer_1" data-name="Layer 1" xmlns="http://www.w3.org/2000/svg" viewBox="0 0 1000 1000">
  <defs>
    <style>
      .cls-1 {
        fill: #fff;
      }

      .cls-2 {
        fill: #3fa047;
      }
    </style>
  </defs>
  <rect class="cls-2" x="-5.31" y="-43.04" width="1030.43" height="3168.05"/>
  <g>
    <path class="cls-1" d="M499.86,313.5c55.8.79,110.12,20.49,149.71,60.54,8.7,4.64,19.08,2.58,24.77-5.86,2.82-4.18,3.33-11.59-.24-15.99-7.14-8.8-15.85-15.77-25.09-22.43-58.54-42.16-132.04-56.96-202.77-42.19-33.03,6.9-63.52,20.18-91.15,39.22-8.19,5.65-23.2,17.78-28.78,25.19s-2.62,16.93,4.92,21.73c8.14,5.19,17.74,2.52,24.31-4.36,6.15-6.44,12.92-11.79,20.27-16.99,37.06-26.19,78.75-37.55,124.04-38.87Z"/>
    <path class="cls-1" d="M579.33,390.28c7.15,4.47,12.23,10.26,18.29,15.78,4.75,4.32,19.23,6.79,25.67-2.96,7.88-11.95-4.57-22.42-14.7-30.19-29.49-22.63-65.45-34.42-102.76-35.21-32.94-.7-64.27,5.74-93.23,21.19-12.31,6.57-23.07,14.82-33.1,24.39-4.08,3.89-6.37,9.87-4.8,15.08,1.4,4.64,4.89,9,9.84,10.38,8.74,2.44,15.62-.14,21.54-6.21,34.02-34.87,92.58-41.06,137.96-28.46,12.76,3.54,23.85,9.07,35.29,16.22Z"/>
    <path class="cls-1" d="M592.83,627.45l-13.68,15.73c-22.54,25.91-46.08,50.04-71.25,73.65-4.33,1.64-9.96,1.37-14.61.28-44.31-43.27-103.3-104.61-134.12-157.47-11.27-19.33-18.87-39.52-20.5-61.86-1.85-25.4,4.88-50.08,18.11-71.24,3.23-5.17,8.05-6.59,14.09-5.06,5.99,1.52,16.33,8.26,14.81,15.98-10.75,34.45-6.19,63.29,10.24,94.69,15.72,30.05,34.01,51.63,57.3,76.92,4.36-3.51,8.49-6.64,12.41-10.26l10.74-9.92c-20.59-22.09-35.27-40.39-49.58-66.99-9.53-17.71-15.37-36.72-15.24-56.83.18-26.67,14.63-49.29,38.2-60.97,23.68-11.74,53.26-13.32,78.9-7.89,23.73,5.03,47.66,20.82,56.43,44.28,9.98,26.69,1.89,59.69-11.69,83.89-11.94,21.29-26.39,40.33-42.83,58.19-2.03,2.21-3.55,4.21-5.36,6.6l22.37,20.14,18.89-20.72c14.92-16.36,27.55-34.12,38.07-53.65,11.83-21.96,19.33-46.46,16.91-71.48-1.27-13.2-8.37-25.15-5.39-31.1,4.56-9.11,21.35-16,26.75-7.8,19.86,30.13,24.38,66.49,14.03,101.05-10.64,35.51-39.75,73.97-64.01,101.86ZM500.76,564.95c27.08-26.85,73.89-93.56,36.13-126.66-16.12-14.14-48.29-15.4-67.82-3.53-20.23,12.29-21.95,32.68-16.89,54.04,8.72,27.03,28.14,55.64,48.58,76.16ZM524.29,633.66l-19.28-17.78c-1.09-1-2.82-3.26-3.69-4.36l-8.7,7.9-15.21,13.82c5.7,6.52,11.89,11.97,19.62,16.07,8.62,4.57,20.4-10.28,27.25-15.64Z"/>
    <path class="cls-1" d="M499.86,313.5c-45.28,1.32-86.97,12.69-124.04,38.87-7.35,5.19-14.12,10.55-20.27,16.99-6.57,6.88-16.17,9.55-24.31,4.36-7.54-4.81-10.63-14.16-4.92-21.73s20.59-19.54,28.78-25.19c27.62-19.04,58.11-32.33,91.15-39.22,70.73-14.77,144.23.03,202.77,42.19,9.24,6.65,17.95,13.63,25.09,22.43,3.57,4.4,3.06,11.81.24,15.99-5.7,8.44-16.07,10.5-24.77,5.86-39.6-40.05-93.92-59.75-149.71-60.54Z"/>
    <path class="cls-1" d="M579.33,390.28c-11.44-7.15-22.53-12.68-35.29-16.22-45.38-12.6-103.94-6.41-137.96,28.46-5.93,6.07-12.8,8.65-21.54,6.21-4.95-1.38-8.44-5.75-9.84-10.38-1.57-5.2.72-11.18,4.8-15.08,10.03-9.57,20.79-17.83,33.1-24.39,28.96-15.44,60.3-21.89,93.23-21.19,37.31.79,73.26,12.58,102.76,35.21,10.13,7.77,22.58,18.24,14.7,30.19-6.43,9.75-20.92,7.28-25.67,2.96-6.06-5.52-11.13-11.3-18.29-15.78Z"/>
  </g>
</svg>