<?xml version="1.0" encoding="UTF-8"?>
<svg id="Layer_1" data-name="Layer 1" xmlns="http://www.w3.org/2000/svg" viewBox="0 0 725 250">
  <defs>
    <style>
      .cls-1 {
        fill: #3fa047;
      }
    </style>
  </defs>
  <path class="cls-1" d="M165.67,88.6c-1.6,3.2,2.22,9.63,2.9,16.74,1.3,13.46-2.74,26.65-9.1,38.46-5.66,10.51-12.46,20.06-20.48,28.87l-10.16,11.15-12.04-10.84c.97-1.28,1.79-2.36,2.88-3.55,8.84-9.61,16.62-19.85,23.05-31.31,7.3-13.02,11.66-30.78,6.29-45.14-4.72-12.63-17.6-21.12-30.37-23.83-13.79-2.92-29.71-2.07-42.45,4.25-12.68,6.29-20.46,18.46-20.56,32.81-.07,10.82,3.07,21.05,8.2,30.58,7.7,14.31,15.6,24.16,26.68,36.04l-5.78,5.34c-2.11,1.95-4.33,3.63-6.68,5.52-12.54-13.61-22.38-25.22-30.83-41.39-8.84-16.9-11.29-32.41-5.51-50.95.82-4.15-4.74-7.78-7.97-8.6-3.25-.83-5.84-.06-7.58,2.72-7.12,11.39-10.74,24.67-9.74,38.33.87,12.02,4.97,22.88,11.03,33.28,16.58,28.44,48.32,61.45,72.17,84.73,2.5.58,5.53.73,7.86-.15,13.54-12.7,26.21-25.69,38.34-39.63l7.36-8.47c13.06-15.01,28.72-35.7,34.44-54.81,5.57-18.59,3.14-38.16-7.55-54.37-2.91-4.41-11.94-.7-14.4,4.2ZM77.48,118.97c-2.72-11.49-1.79-22.47,9.09-29.08,10.51-6.39,27.82-5.71,36.49,1.9,20.32,17.81-4.87,53.71-19.44,68.15-11-11.04-21.45-26.43-26.14-40.98ZM101.62,205.34c-4.16-2.2-7.49-5.13-10.56-8.64l8.18-7.44,4.68-4.25c.46.59,1.4,1.81,1.98,2.35l10.37,9.57c-3.69,2.88-10.03,10.87-14.66,8.41Z"/>
  <path class="cls-1" d="M183.4,33.4C151.9,10.71,112.35,2.75,74.29,10.7c-17.78,3.71-34.18,10.86-49.04,21.11-4.41,3.04-12.48,9.57-15.49,13.55-3.07,4.08-1.41,9.11,2.65,11.69,4.38,2.79,9.55,1.35,13.08-2.35,3.31-3.46,6.95-6.35,10.91-9.14,19.94-14.09,42.38-20.2,66.74-20.92,30.02.42,59.25,11.02,80.56,32.57,4.68,2.5,10.26,1.39,13.33-3.15,1.52-2.25,1.79-6.24-.13-8.6-3.84-4.73-8.53-8.49-13.5-12.07Z"/>
  <path class="cls-1" d="M501.58,155.58l-.36,6.61c-3.36-4.46-7-7.07-12.13-7.8-8.97-1.27-17.37,2.16-22.53,9.8-4.61,6.83-5.58,15.65-3.46,23.59,2.8,10.48,11.92,16.64,22.56,16.36,5.89-.15,11.12-1.62,15.25-6.29.89,4.15.25,10.68-3.71,13.3-7,4.63-18.8,2.35-25.9-3.03l-6.43,13.05c3.88,2.24,6.94,3.47,10.56,4.77,11.6,2.82,27.42,2.62,36.49-6.23,4.35-4.25,7.21-11.25,7.22-16.99l.07-47.02c-6.05.3-11.48.21-17.65-.1ZM501.08,184.4c-2.99,6.39-11.64,8.06-16.96,3.91-2.78-2.17-3.72-5.43-3.63-9.18.1-4.04,1.7-8.01,5.64-9.6,7.03-2.85,15.23,1.48,15.12,6.65l-.17,8.21Z"/>
  <path class="cls-1" d="M343.96,130.03c-7.05.99-14.23-.52-20.36-5l-6.55,12.71c14.55,10.48,46.23,9.12,52.24-9.86.97-3.07,1.72-6.6,1.73-9.95l.03-45.61-17.84-.15-.08,6.87c-6.1-9.64-18.78-10.01-27.46-4.65-4.98,3.08-9.12,8.67-10.37,15.52-1.9,10.4.3,21.95,9.98,27.7,7.92,4.71,17.64,4.84,25.03-.72l2.64-1.98c.96,7.15-1.06,14-8.98,15.12ZM352.83,100.43c-.88,4.99-6.3,7.08-10.63,6.86-3.6-.19-6.53-1.65-8.17-4.84-1.58-3.08-1.76-6.8-.76-10.26,1.56-5.39,7.28-7.93,12.62-6.37,2.89.85,6.4,2.41,6.96,5.86.4,2.46.47,5.97-.02,8.76Z"/>
  <path class="cls-1" d="M698.48,133.32l-.29,27.92c-3.31-3.48-6.9-6.09-11.57-6.76-7.83-1.11-15.61.8-21.23,6.44-9.12,9.16-10.12,24.48-3.49,34.98,6.19,9.81,18.63,13.69,29.16,9.39,3.1-1.27,5.26-3.68,7.94-6.11l.14,6.46,17.69-.02v-72.31s-18.35,0-18.35,0ZM694.35,190.53c-3.67,2.42-8.03,2.98-11.94,1.03-7.65-3.82-8-15.54-2.62-20.2,4.65-4.03,11.94-3.59,16.33.69,3.35,3.27,4.65,14.22-1.77,18.47Z"/>
  <path class="cls-1" d="M41.08,75.89c4.7,1.31,8.4-.08,11.59-3.34,18.31-18.76,49.82-22.09,74.23-15.31,6.87,1.91,12.83,4.88,18.99,8.73,3.85,2.41,6.58,5.52,9.84,8.49,2.55,2.33,10.35,3.65,13.81-1.59,4.24-6.43-2.46-12.06-7.91-16.24-15.87-12.17-35.22-18.52-55.29-18.95-17.72-.38-34.58,3.09-50.17,11.4-6.63,3.53-12.41,7.98-17.81,13.13-2.2,2.1-3.43,5.31-2.58,8.11.75,2.49,2.63,4.84,5.29,5.59Z"/>
  <path class="cls-1" d="M348.92,154.18c-10.81.14-21.1,4.58-26.48,14.37-4.7,8.56-3.87,19.81,2.21,27.4,8.98,11.22,24.33,13.3,37.06,9.27,4.95-1.57,9.55-4.74,12.85-8.8,7.18-8.84,7.45-21.62.81-30.96-6.03-8.49-16.31-11.41-26.46-11.28ZM361.12,184.05c-.94,5.35-4.89,8.53-10.49,8.79-5.85.27-10.47-2.61-12.07-8.23-1.19-4.15-.71-9.41,2.58-12.81,4.46-4.61,12.67-4.64,17.23-.24,3.41,3.29,3.49,8.28,2.75,12.47Z"/>
  <path class="cls-1" d="M621.46,154.19c-9.25.2-17.73,2.89-23.83,10.19-7.47,8.93-7.76,22.3-.57,31.82,2.98,3.95,7.33,6.81,12.11,8.62,15.49,5.85,37.43.2,41.94-17.11,1.59-6.12,1.48-12.96-1.43-18.51-5.52-10.52-16.82-15.25-28.22-15.01ZM633.05,184.54c-.92,4.43-3.98,7.24-8.53,8.14-6.82,1.35-12.64-2.34-13.91-9.02-.96-5.05.27-10.83,4.95-13.68,5.48-3.34,12.16-1.57,16.44,3.09,1.76,3.59,1.87,7.56,1.06,11.46Z"/>
  <path class="cls-1" d="M570.94,157c-14.36-6.41-35.78-2.21-42.27,12.85-2.61,6.05-2.92,12.76-.92,19.2,5.13,16.52,26.52,21.56,42.3,15.45,10.93-4.23,17.24-14.24,16.48-25.81-.65-9.89-6.68-17.7-15.59-21.68ZM564.4,190.04c-5.31,4.55-13.55,3.82-17.52-1.94-3.24-4.7-2.88-11.7.73-16.07,3.33-4.04,9.19-4.55,13.83-2.78,4.33,1.64,6.61,5.91,6.7,10.46.07,3.79-.62,7.67-3.73,10.34Z"/>
  <path class="cls-1" d="M418.94,71.23c-7.83-1.44-16.06,1.43-20.78,8.56l-.25-7.57h-17.83s-.03,50.2-.03,50.2l18.1-.02.26-28.8c.05-5.25,5.63-7.87,10.26-7.63,4.96.25,7.81,3.3,7.79,7.97l-.12,28.46h18.57s.04-29.96.04-29.96c.01-10.94-4.91-19.16-16.01-21.2Z"/>
  <path class="cls-1" d="M476.93,115.77l.46,6.61h16.8s.02-29.47.02-29.47c0-9.27-4-16.93-13.14-20.14-12.27-4.31-26.11-1.96-36.61,6.3,2.87,3.54,5.71,6.26,8.76,9.22l5.72-3.29c3.92-2.25,8.77-2.71,12.88-1.26,3.39,1.2,5.35,4.12,5.03,7.47l-11.71.3c-4.19.11-8.34,1.12-12.22,2.34-7.49,2.35-11.88,8.88-10.61,16.78.66,4.09,2.64,7.73,6.72,10.1,6.74,3.92,15.65,4.05,22.42.29,2.25-1.25,3.45-3.37,5.48-5.23ZM465.13,112.36c-2.62-.18-4.8-1.1-5.42-3.41-.62-2.3.14-4.77,2.6-6.09,1.65-.88,4.1-1.48,6.14-1.48l8.24-.02c-.19,1.6-.04,3.32-.29,4.52-1.08,5.16-6.8,6.79-11.28,6.48Z"/>
  <path class="cls-1" d="M313.77,146.44c.85-2.67,1.14-9.88.82-12.65-11.62-3.76-27.83-1.68-31.73,11.31-1.03,3.44-.91,6.85-.99,10.66l-9.21.19v13.69s9.26.11,9.26.11v35.94s10.11-.04,10.11-.04l8.03.04v-35.96s14.14-.08,14.14-.08v-13.79s-13.79,0-13.79,0c.04-2.34-.02-4.51.7-6.56,1.38-3.96,8.92-3.4,12.66-2.87Z"/>
  <path class="cls-1" d="M279.67,113.34c2.68-5.16,2.31-11.41-1.75-15.6-10.07-10.4-27.3-4.85-26.81-11.89.08-1.12,1.15-2.5,2.6-2.72,8.97-1.31,9.91.88,17.69,4.62l8.34-9.53c-1.45-1.51-2.76-2.5-4.57-3.36-9.52-4.57-20.73-5.5-30.62-1.75-4.89,1.85-9.06,5.1-10.46,9.92-1.94,6.7.78,12.92,6.76,16.16,9.81,5.3,22.45,2.95,22.6,8.19.03,1.24-.99,2.58-2.23,3.05-7.74,2.93-14.58-1.39-21.25-5.41l-8.9,10.35c4.01,3.56,8.48,5.76,13.56,7.03,10.5,2.63,29.05,2.46,35.05-9.07Z"/>
  <polygon class="cls-1" points="501.98 50.02 501.97 122.31 519.85 122.35 519.83 50.02 501.98 50.02"/>
  <path class="cls-1" d="M406.3,164.26l-.35-8.39-18.01.02.02,49.86,18.44-.05.27-26.75c.04-3.72,3.54-6.78,6.32-7.88,5.29-2.11,9.5-1.37,15.05.76l1.38-15.66c-1.52-1.32-3.54-1.67-5.51-1.82-7.48-.58-13.76,3.09-17.6,9.92Z"/>
  <polygon class="cls-1" points="289.25 122.36 307.4 122.31 307.41 72.2 289.29 72.33 289.25 122.36"/>
  <path class="cls-1" d="M303.18,64.28c3.59-1.7,5.53-4.87,5.49-8.34-.05-3.57-1.83-6.52-5.33-8.27-3.27-1.64-7.39-1.69-10.63.18-3.87,2.23-6,6.71-4.34,10.89,2.35,5.91,9.02,8.28,14.81,5.54Z"/>
</svg>